<svg width="17" height="17" viewBox="0 0 17 17" fill="none" xmlns="http://www.w3.org/2000/svg">
<path fill-rule="evenodd" clip-rule="evenodd" d="M8.49998 14.8751C11.6296 14.8751 14.1666 12.338 14.1666 9.20841C14.1666 6.0788 11.6296 3.54175 8.49998 3.54175C5.37037 3.54175 2.83331 6.0788 2.83331 9.20841C2.83331 12.338 5.37037 14.8751 8.49998 14.8751ZM9.20831 6.37508C9.20831 5.98388 8.89118 5.66675 8.49998 5.66675C8.10878 5.66675 7.79165 5.98388 7.79165 6.37508V8.91501C7.79165 9.29074 7.9409 9.65107 8.20658 9.91675L9.41578 11.1259C9.6924 11.4026 10.1409 11.4026 10.4175 11.1259C10.6941 10.8493 10.6941 10.4008 10.4175 10.1242L9.20831 8.91501V6.37508Z" fill="#FDA655"/>
<path d="M5.28846 2.89341C5.11143 2.54532 4.68363 2.40398 4.35302 2.61182C3.36653 3.23199 2.53153 4.06572 1.90988 5.05127C1.70153 5.38157 1.84222 5.80958 2.19004 5.98713C2.53786 6.16469 2.96059 6.02395 3.17554 5.69791C3.65287 4.97389 4.273 4.3547 4.99774 3.87847C5.3241 3.66401 5.46548 3.24149 5.28846 2.89341Z" fill="#FDA655"/>
<path d="M11.7115 2.89341C11.8886 2.54532 12.3164 2.40398 12.647 2.61182C13.6335 3.23199 14.4685 4.06572 15.0901 5.05127C15.2985 5.38157 15.1578 5.80958 14.81 5.98713C14.4621 6.16469 14.0394 6.02395 13.8245 5.69791C13.3471 4.97389 12.727 4.3547 12.0023 3.87847C11.6759 3.66401 11.5345 3.24149 11.7115 2.89341Z" fill="#FDA655"/>
</svg>
