<svg width="17" height="17" viewBox="0 0 17 17" fill="none" xmlns="http://www.w3.org/2000/svg">
<path fill-rule="evenodd" clip-rule="evenodd" d="M8.50002 15.5834C12.412 15.5834 15.5834 12.4121 15.5834 8.50008C15.5834 4.58806 12.412 1.41675 8.50002 1.41675C4.588 1.41675 1.41669 4.58806 1.41669 8.50008C1.41669 12.4121 4.588 15.5834 8.50002 15.5834ZM5.90212 9.63316C5.74549 9.27468 5.32792 9.11104 4.96944 9.26767C4.61096 9.4243 4.44733 9.84187 4.60395 10.2004C5.25913 11.6999 6.75613 12.7501 8.50001 12.7501C10.2439 12.7501 11.7409 11.6999 12.3961 10.2004C12.5527 9.84187 12.3891 9.4243 12.0306 9.26767C11.6721 9.11104 11.2545 9.27468 11.0979 9.63316C10.66 10.6353 9.66075 11.3334 8.50001 11.3334C7.33926 11.3334 6.33998 10.6353 5.90212 9.63316ZM6.37502 6.37508C6.37502 6.76628 6.05789 7.08342 5.66669 7.08342C5.27549 7.08342 4.95835 6.76628 4.95835 6.37508C4.95835 5.98388 5.27549 5.66675 5.66669 5.66675C6.05789 5.66675 6.37502 5.98388 6.37502 6.37508ZM11.3334 7.08342C11.7246 7.08342 12.0417 6.76628 12.0417 6.37508C12.0417 5.98388 11.7246 5.66675 11.3334 5.66675C10.9422 5.66675 10.625 5.98388 10.625 6.37508C10.625 6.76628 10.9422 7.08342 11.3334 7.08342Z" fill="#36D080"/>
</svg>
